<svg id="Layer_2" data-name="Layer 2" xmlns="http://www.w3.org/2000/svg" viewBox="0 0 1122.08 292.93">
  <defs>
    <style>
      .cls-1 {
        fill: #515151;
      }

      .cls-2 {
        fill: #232323;
      }

      .cls-3 {
        fill: #a0a0a0;
      }

      .cls-4 {
        fill: #ed1c24;
        stroke: #000;
        stroke-miterlimit: 10;
        stroke-width: 2px;
      }
    </style>
  </defs>
  <g id="Layer_1-2" data-name="Layer 1">
    <g>
      <g>
        <path class="cls-3" d="M232.73,37.85C186.68,3.14,90.71-3.98,7.99,22.61l17.14,87.61c29.23,16.32,59.11,28.89,90.42,33.13.05,0,.06.08,0,.1-17,4.6-35.29,6-54.62,4.86l12.19,51.8c19.96,9.49,42.21,15.19,65.93,18.46.29.04.3.44.02.5l-33.9,6.78,11.89,67.07,77.2-103.48c-19.95.86-39.61-.7-59.04-4.19,34.12-3.49,65.95-8.98,90.27-20.95l15.24-43.42c-34.33.73-67.46-4.87-100.3-12-.44-.1-.39-.75.06-.78,74.51-5.88,102.43-12.48,120.81-19.22l5.71-25.14c-74.83-4.31-141.23-7.41-200.14-34.03-.46-.21-.43-.91.08-.96,50.73-5.1,110.75-.83,165.78,9.09Z"/>
        <path class="cls-4" d="M225.89,32.37C179.84-2.35,83.87-9.46,1.15,17.13l17.14,87.61c29.23,16.32,59.11,28.89,90.42,33.13.05,0,.06.08,0,.1-17,4.6-35.29,6-54.62,4.86l12.19,51.8c19.96,9.49,42.21,15.19,65.93,18.46.29.04.3.44.02.5l-33.9,6.78,11.89,67.07,77.2-103.48c-19.95.86-39.61-.7-59.04-4.19,34.12-3.49,65.95-8.98,90.27-20.95l15.24-43.42c-34.33.73-67.46-4.87-100.3-12-.44-.1-.39-.75.06-.78,74.51-5.88,102.43-12.48,120.81-19.22l5.71-25.14c-74.83-4.31-141.23-7.41-200.14-34.03-.46-.21-.43-.91.08-.96,50.73-5.1,110.75-.83,165.78,9.09Z"/>
      </g>
      <g>
        <path class="cls-2" d="M310.38,112c0-22.04,5.03-35.79,14.05-44.37,9.17-8.73,20.7-10.65,30.61-10.65s21.44,1.92,30.61,10.65c9.02,8.58,14.05,22.33,14.05,44.37s-5.03,35.79-14.05,44.37c-9.17,8.73-20.71,10.65-30.61,10.65s-21.44-1.92-30.61-10.65c-9.02-8.58-14.05-22.33-14.05-44.37ZM355.04,143.2c5.18,0,8.28-2.22,10.06-5.47,2.66-4.88,3.99-14.2,3.99-25.73s-1.33-20.85-3.99-25.73c-1.77-3.25-4.88-5.47-10.06-5.47s-8.28,2.22-10.06,5.47c-2.66,4.88-3.99,14.2-3.99,25.73s1.33,20.85,3.99,25.73c1.78,3.25,4.88,5.47,10.06,5.47Z"/>
        <path class="cls-2" d="M415.38,60.24h29.28v39.19l24.4-39.19h33.13l-24.99,38.75,26.18,64.77h-32.24l-15.38-39.04-11.09,18.19v20.85h-29.28V60.24Z"/>
        <path class="cls-2" d="M513.58,60.24h29.87v77.49h38.89v26.03h-68.77V60.24Z"/>
        <path class="cls-2" d="M616.36,60.24h34.01l30.02,103.52h-30.02l-3.11-12.57h-27.95l-2.96,12.57h-30.02l30.02-103.52ZM623.91,131.96h18.78l-9.17-38.3h-.29l-9.32,38.3Z"/>
        <path class="cls-2" d="M690.31,60.24h29.87v37.27h26.32v-37.27h29.87v103.52h-29.87v-40.67h-26.32v40.67h-29.87V60.24Z"/>
        <path class="cls-2" d="M792.06,112c0-22.04,5.03-35.79,14.05-44.37,9.17-8.73,20.7-10.65,30.61-10.65s21.44,1.92,30.61,10.65c9.02,8.58,14.05,22.33,14.05,44.37s-5.03,35.79-14.05,44.37c-9.17,8.73-20.71,10.65-30.61,10.65s-21.44-1.92-30.61-10.65c-9.02-8.58-14.05-22.33-14.05-44.37ZM836.72,143.2c5.18,0,8.28-2.22,10.06-5.47,2.66-4.88,3.99-14.2,3.99-25.73s-1.33-20.85-3.99-25.73c-1.77-3.25-4.88-5.47-10.06-5.47s-8.28,2.22-10.06,5.47c-2.66,4.88-3.99,14.2-3.99,25.73s1.33,20.85,3.99,25.73c1.78,3.25,4.88,5.47,10.06,5.47Z"/>
        <path class="cls-2" d="M897.51,60.24h47.18l12.72,54.57,12.72-54.57h47.18v103.52h-29.13v-78.68h-.3l-19.37,78.68h-22.18l-19.37-78.68h-.3v78.68h-29.13V60.24Z"/>
        <path class="cls-2" d="M1057.68,60.24h34.01l30.02,103.52h-30.02l-3.11-12.57h-27.95l-2.96,12.57h-30.02l30.02-103.52ZM1065.22,131.96h18.78l-9.17-38.3h-.29l-9.32,38.3Z"/>
      </g>
      <g>
        <path class="cls-1" d="M308.75,192.17h7.3v16.42h13.99v-16.42h7.3v42.56h-7.3v-19.7h-13.99v19.7h-7.3v-42.56Z"/>
        <path class="cls-1" d="M346.88,220.5c0-5.05.79-8.7,2.98-11.25,2.13-2.49,5.17-3.59,8.76-3.59s6.63,1.09,8.7,3.59c2.19,2.55,3.04,6.2,3.04,11.25s-.85,8.7-3.04,11.25c-2.07,2.49-5.11,3.59-8.7,3.59s-6.63-1.09-8.76-3.59c-2.19-2.55-2.98-6.2-2.98-11.25ZM358.62,230.05c2.25,0,3.53-.91,4.13-3.1.43-1.46.61-4.2.61-6.45s-.18-4.93-.61-6.45c-.61-2.13-1.89-3.04-4.13-3.04s-3.59.91-4.13,3.04c-.43,1.52-.61,4.26-.61,6.45,0,2.43.18,4.86.61,6.45.61,2.37,2.01,3.1,4.13,3.1Z"/>
        <path class="cls-1" d="M378.68,206.27h6.2l.49,2.86c1.46-2.49,4.2-3.28,6.81-3.28,3.89,0,6.08,1.7,7.24,4.2,1.58-2.92,4.07-4.2,7.78-4.2,5.66,0,8.51,3.04,8.51,10.95v17.94h-6.75v-17.03c0-5.17-1.09-6.63-3.89-6.63-2.98,0-4.56,1.58-4.56,7.36v16.3h-6.69v-17.03c0-5.17-1.03-6.63-3.89-6.63s-4.5,1.58-4.5,7.36v16.3h-6.75v-28.46Z"/>
        <path class="cls-1" d="M423.87,220.5c0-5.05.79-8.7,2.98-11.25,2.13-2.49,5.11-3.59,8.7-3.59s6.81,1.16,8.82,3.59c2.19,2.61,2.98,6.45,2.98,12.53h-16.66c0,1.82.18,3.71.61,5.11.61,2.13,1.76,3.16,4.32,3.16,3.22,0,4.26-1.7,4.8-5.17l6.26,1.16c-.91,5.35-4.26,9.3-11.07,9.3-3.65,0-6.63-1.16-8.76-3.65-2.19-2.55-2.98-6.14-2.98-11.19ZM430.8,217.34h9.55c-.36-3.59-.61-6.81-4.74-6.81-2.49,0-3.71,1.16-4.26,3.22-.24.91-.43,2.25-.55,3.59Z"/>
        <path class="cls-1" d="M472.51,192.17h7.3v42.56h-7.3v-42.56Z"/>
        <path class="cls-1" d="M490.45,206.27h6.26l.49,2.98c1.46-2.68,4.38-3.41,7.11-3.41,5.84,0,8.45,3.34,8.45,10.95v17.94h-6.75v-17.03c0-5.11-1.09-6.63-4.01-6.63s-4.8,1.58-4.8,7.36v16.3h-6.75v-28.46Z"/>
        <path class="cls-1" d="M526.51,225.18c.3,4.01,1.82,5.23,4.86,5.23,2.55,0,3.89-.85,3.89-2.92,0-2.55-1.76-2.98-6.87-5.11-3.65-1.52-7.84-3.34-7.84-8.88s4.07-7.84,10.21-7.84c8.21,0,10.4,4.62,10.88,8.82l-6.2,1.09c-.3-2.86-1.09-5.05-4.8-5.05-2.68,0-3.71,1.16-3.71,2.74,0,2.74,2.49,3.34,6.93,5.05,4.62,1.82,7.84,3.53,7.84,8.82s-3.59,8.21-10.28,8.21c-6.26,0-10.52-2.31-11.13-9.06l6.2-1.09Z"/>
        <path class="cls-1" d="M549.56,206.27h6.75v3.34c.97-1.95,3.1-3.77,6.99-3.77,3.53,0,5.78,1.52,7.24,3.71,1.46,2.25,2.19,5.59,2.19,10.82,0,6.45-1.09,9.73-2.55,11.67-1.88,2.55-4.74,3.16-7.11,3.16-3.59,0-5.72-1.28-6.75-3.16v12.59h-6.75v-38.37ZM561.17,229.99c1.88,0,3.41-.67,4.07-3.16.43-1.58.49-3.89.49-6.38s-.06-4.5-.49-5.96c-.61-2.19-1.82-3.28-4.07-3.28-1.95,0-3.34.79-4.13,2.74-.67,1.7-.85,4.07-.85,6.57,0,2.98.24,5.35.85,6.81.85,2.01,2.31,2.67,4.13,2.67Z"/>
        <path class="cls-1" d="M580.02,220.5c0-5.05.79-8.7,2.98-11.25,2.13-2.49,5.11-3.59,8.7-3.59s6.81,1.16,8.82,3.59c2.19,2.61,2.98,6.45,2.98,12.53h-16.66c0,1.82.18,3.71.61,5.11.61,2.13,1.76,3.16,4.32,3.16,3.22,0,4.26-1.7,4.8-5.17l6.26,1.16c-.91,5.35-4.26,9.3-11.07,9.3-3.65,0-6.63-1.16-8.76-3.65-2.19-2.55-2.98-6.14-2.98-11.19ZM586.96,217.34h9.55c-.36-3.59-.61-6.81-4.74-6.81-2.49,0-3.71,1.16-4.26,3.22-.24.91-.43,2.25-.55,3.59Z"/>
        <path class="cls-1" d="M610.49,220.5c0-5.05.79-8.7,2.98-11.25,1.89-2.19,4.62-3.59,8.76-3.59,6.51,0,9.97,3.41,11.01,9.3l-6.38,1.09c-.49-2.86-1.22-5.05-4.62-5.05-2.31,0-3.59.91-4.13,3.04-.43,1.52-.61,4.26-.61,6.45,0,2.43.18,4.8.61,6.38.61,2.37,2.01,3.16,4.2,3.16,3.34,0,4.13-2.07,4.5-5.47l6.45,1.03c-.79,5.59-4.01,9.73-11.01,9.73-3.59,0-6.57-1.09-8.76-3.65-2.19-2.55-2.98-6.14-2.98-11.19Z"/>
        <path class="cls-1" d="M638.89,206.27h3.65v-6.99l6.75-1.22v8.21h6.57v5.47h-6.57v13.38c0,3.28.85,4.38,3.65,4.38,1.16,0,2.19-.18,2.74-.24v5.47c-1.16.37-2.55.49-4.01.49-6.45,0-9.18-2.68-9.18-9.73,0-1.03.06-8.82.06-13.74h-3.65v-5.47Z"/>
        <path class="cls-1" d="M663.09,195.21h7.48v6.63h-7.48v-6.63ZM663.45,206.27h6.75v28.46h-6.75v-28.46Z"/>
        <path class="cls-1" d="M678.6,220.5c0-5.05.79-8.7,2.98-11.25,2.13-2.49,5.17-3.59,8.76-3.59s6.63,1.09,8.7,3.59c2.19,2.55,3.04,6.2,3.04,11.25s-.85,8.7-3.04,11.25c-2.07,2.49-5.11,3.59-8.7,3.59s-6.63-1.09-8.76-3.59c-2.19-2.55-2.98-6.2-2.98-11.25ZM690.33,230.05c2.25,0,3.53-.91,4.13-3.1.42-1.46.61-4.2.61-6.45s-.18-4.93-.61-6.45c-.61-2.13-1.89-3.04-4.13-3.04s-3.59.91-4.14,3.04c-.42,1.52-.61,4.26-.61,6.45,0,2.43.18,4.86.61,6.45.61,2.37,2.01,3.1,4.14,3.1Z"/>
        <path class="cls-1" d="M710.4,206.27h6.26l.49,2.98c1.46-2.68,4.38-3.41,7.11-3.41,5.84,0,8.45,3.34,8.45,10.95v17.94h-6.75v-17.03c0-5.11-1.09-6.63-4.01-6.63s-4.8,1.58-4.8,7.36v16.3h-6.75v-28.46Z"/>
        <path class="cls-1" d="M766.16,209.62c-1.95-3.47-3.16-6.38-3.16-9.61,0-5.72,3.59-8.63,9.3-8.63,6.14,0,8.94,3.4,8.94,8.94,0,4.99-2.25,8.21-7.24,10.76l4.99,8.51c1.28-2.68,3.34-5.29,5.78-6.81l3.71,5.23c-2.8,1.76-4.26,3.77-6.38,6.87l5.78,9.85h-7.72l-2.37-4.2c-2.61,3.22-5.05,5.11-9.67,5.11-7.17,0-12.04-4.44-12.04-12.46,0-7.05,3.89-10.82,10.09-13.56ZM775.16,225.79l-6.81-12.22c-3.65,1.95-5.05,4.56-5.05,8.45,0,4.87,2.07,7.91,5.9,7.91,3.22,0,4.8-1.82,5.96-4.13ZM771.94,207.49c3.22-1.52,4.44-3.22,4.44-6.51s-1.22-4.62-3.53-4.62c-2.07,0-3.28,1.03-3.28,3.89,0,1.64.43,3.77,2.37,7.24Z"/>
        <path class="cls-1" d="M812.13,192.17h14.29c11.49,0,14.05,5.11,14.05,11.98,0,7.84-3.47,12.59-14.59,12.59h-6.57v18h-7.18v-42.56ZM825.87,210.65c5.35,0,7.18-2.01,7.18-6.26,0-4.01-1.64-6.02-6.87-6.02h-6.87v12.28h6.57Z"/>
        <path class="cls-1" d="M844.73,220.5c0-5.05.79-8.7,2.98-11.25,2.13-2.49,5.11-3.59,8.7-3.59s6.81,1.16,8.82,3.59c2.19,2.61,2.98,6.45,2.98,12.53h-16.66c0,1.82.18,3.71.61,5.11.61,2.13,1.76,3.16,4.32,3.16,3.22,0,4.26-1.7,4.8-5.17l6.26,1.16c-.91,5.35-4.26,9.3-11.07,9.3-3.65,0-6.63-1.16-8.76-3.65-2.19-2.55-2.98-6.14-2.98-11.19ZM851.66,217.34h9.55c-.36-3.59-.61-6.81-4.74-6.81-2.49,0-3.71,1.16-4.26,3.22-.24.91-.43,2.25-.55,3.59Z"/>
        <path class="cls-1" d="M880.79,225.18c.3,4.01,1.82,5.23,4.86,5.23,2.55,0,3.89-.85,3.89-2.92,0-2.55-1.76-2.98-6.87-5.11-3.65-1.52-7.84-3.34-7.84-8.88s4.07-7.84,10.21-7.84c8.21,0,10.4,4.62,10.88,8.82l-6.2,1.09c-.3-2.86-1.09-5.05-4.8-5.05-2.68,0-3.71,1.16-3.71,2.74,0,2.74,2.49,3.34,6.93,5.05,4.62,1.82,7.84,3.53,7.84,8.82s-3.59,8.21-10.28,8.21c-6.26,0-10.52-2.31-11.13-9.06l6.2-1.09Z"/>
        <path class="cls-1" d="M901.52,206.27h3.65v-6.99l6.75-1.22v8.21h6.57v5.47h-6.57v13.38c0,3.28.85,4.38,3.65,4.38,1.16,0,2.19-.18,2.74-.24v5.47c-1.16.37-2.55.49-4.01.49-6.45,0-9.18-2.68-9.18-9.73,0-1.03.06-8.82.06-13.74h-3.65v-5.47Z"/>
        <path class="cls-1" d="M941.72,213.45c0-6.99.79-12.77,3.16-16.54,2.37-3.77,6.38-5.66,11.61-5.66s9.24,1.76,11.67,5.66c1.16,1.82,2.07,4.07,2.68,7.54l-7.12,1.28c-.24-1.76-.67-3.59-1.03-4.62-.97-2.68-3.22-3.65-6.14-3.65s-5.05.85-6.14,3.65c-.73,2.01-1.22,5.41-1.22,12.34s.49,10.34,1.22,12.34c1.03,2.68,3.1,3.65,6.14,3.65s4.99-.91,6.08-3.65c.43-1.09.79-2.86,1.09-5.35l7.18,1.28c-.49,3.22-1.22,5.9-2.74,8.27-2.37,3.77-6.2,5.66-11.61,5.66s-9.3-1.88-11.67-5.66c-2.37-3.77-3.16-9.55-3.16-16.54Z"/>
        <path class="cls-1" d="M977.84,220.5c0-5.05.79-8.7,2.98-11.25,2.13-2.49,5.17-3.59,8.76-3.59s6.63,1.09,8.7,3.59c2.19,2.55,3.04,6.2,3.04,11.25s-.85,8.7-3.04,11.25c-2.07,2.49-5.11,3.59-8.7,3.59s-6.63-1.09-8.76-3.59c-2.19-2.55-2.98-6.2-2.98-11.25ZM989.57,230.05c2.25,0,3.53-.91,4.13-3.1.42-1.46.61-4.2.61-6.45s-.18-4.93-.61-6.45c-.61-2.13-1.89-3.04-4.13-3.04s-3.59.91-4.14,3.04c-.42,1.52-.61,4.26-.61,6.45,0,2.43.18,4.86.61,6.45.61,2.37,2.01,3.1,4.14,3.1Z"/>
        <path class="cls-1" d="M1009.64,206.27h6.26l.49,2.98c1.46-2.68,4.38-3.41,7.11-3.41,5.84,0,8.45,3.34,8.45,10.95v17.94h-6.75v-17.03c0-5.11-1.09-6.63-4.01-6.63s-4.8,1.58-4.8,7.36v16.3h-6.75v-28.46Z"/>
        <path class="cls-1" d="M1038.95,206.27h3.65v-6.99l6.75-1.22v8.21h6.57v5.47h-6.57v13.38c0,3.28.85,4.38,3.65,4.38,1.16,0,2.19-.18,2.74-.24v5.47c-1.16.37-2.55.49-4.01.49-6.45,0-9.18-2.68-9.18-9.73,0-1.03.06-8.82.06-13.74h-3.65v-5.47Z"/>
        <path class="cls-1" d="M1063.52,206.27h6.26l.55,3.41c1.22-2.8,3.89-3.89,7.48-3.89v6.57c-.55-.12-1.22-.12-1.7-.12-4.44,0-5.84,2.07-5.84,6.69v15.81h-6.75v-28.46Z"/>
        <path class="cls-1" d="M1083.52,220.5c0-5.05.79-8.7,2.98-11.25,2.13-2.49,5.17-3.59,8.76-3.59s6.63,1.09,8.7,3.59c2.19,2.55,3.04,6.2,3.04,11.25s-.85,8.7-3.04,11.25c-2.07,2.49-5.11,3.59-8.7,3.59s-6.63-1.09-8.76-3.59c-2.19-2.55-2.98-6.2-2.98-11.25ZM1095.26,230.05c2.25,0,3.53-.91,4.13-3.1.42-1.46.61-4.2.61-6.45s-.18-4.93-.61-6.45c-.61-2.13-1.89-3.04-4.13-3.04s-3.59.91-4.14,3.04c-.42,1.52-.61,4.26-.61,6.45,0,2.43.18,4.86.61,6.45.61,2.37,2.01,3.1,4.14,3.1Z"/>
        <path class="cls-1" d="M1115.33,192.17h6.75v42.56h-6.75v-42.56Z"/>
      </g>
    </g>
  </g>
</svg> 