<svg id="a" xmlns="http://www.w3.org/2000/svg" viewBox="0 0 1712.59 523.37"><defs><style>.b{fill:#fff;}</style></defs><g><path class="b" d="M311.67,326.79c-5.9-16.6-11.6-32.39-16.99-48.29-.4-1.17,.96-3.61,2.2-4.54,24.26-18.41,48.56-36.77,72.97-54.98,33.08-24.68,65.98-49.6,99.45-73.73,34.69-25.01,69.96-49.19,104.98-73.73,.51-.36,1.13-.57,1.64-.83,4.42,4.37,4.73,8.4,1.87,14.17-13.91,28.01-27.16,56.35-40.79,84.5-.95,1.97-2.79,3.73-4.63,5-65,44.99-130.06,89.91-195.11,134.83-8.32,5.75-16.67,11.46-25.6,17.59Z"/><path class="b" d="M3.19,71.23c12.98,9.06,26.07,18.17,39.14,27.32,27,18.89,54.29,37.38,80.91,56.81,32.8,23.94,65.03,48.66,97.51,73.04,20.1,15.09,40.15,30.25,60.34,45.21,2.63,1.95,3.07,3.47,1.95,6.51-4.94,13.42-9.58,26.96-14.35,40.45-.65,1.85-1.44,3.66-2.38,6.02-6.86-4.71-13.4-9.17-19.91-13.68-43.76-30.35-87.52-60.71-131.28-91.07-23.11-16.03-46.23-32.04-69.26-48.19-1.78-1.25-3.18-3.4-4.14-5.42C28.54,140.42,15.5,112.54,2.34,84.72c-2.13-4.5-4.33-8.8,.86-13.49Z"/><path class="b" d="M55.6,196.62c69.58,48.4,138.16,95.75,206.48,143.47l-1.07,1.93c-1.25,.13-2.51,.37-3.76,.37-25.99,.02-51.98,.09-77.96-.1-2.77-.02-5.89-1.04-8.23-2.55-22.61-14.66-45.11-29.51-67.59-44.38-1.45-.96-2.91-2.33-3.64-3.86-14.45-30.52-28.79-61.09-43.14-91.65-.27-.57-.41-1.2-1.1-3.23Z"/><path class="b" d="M523.04,198.39c-4.76,10.01-9.5,20.03-14.3,30.02-9.56,19.95-19.04,39.93-28.84,59.76-1.52,3.07-4.07,6.14-6.93,7.96-23.72,15.12-47.6,29.97-71.5,44.81-1.45,.9-3.41,1.39-5.13,1.4-25.15,.09-50.31,.08-75.46,0-1.31,0-2.61-.75-3.92-1.16,.88-1.2,1.52-2.75,2.67-3.55,56-38.69,112.04-77.32,168.07-115.97,10.13-6.99,20.2-14.07,30.31-21.09,1.42-.99,2.92-1.87,4.38-2.8,.22,.2,.43,.39,.65,.59Z"/><path class="b" d="M348.23,480.23c-19.46,14.57-38.07,28.56-56.78,42.4-1.01,.75-3.39,1.03-4.27,.38-18.96-14-37.79-28.17-57.29-42.77,10.44-6.06,20.29-11.78,30.15-17.49,8.63-5,17.21-10.1,25.97-14.86,1.55-.84,4.31-1.02,5.78-.19,18.24,10.32,36.34,20.87,54.48,31.37,.42,.25,.84,.5,1.96,1.16Z"/><path class="b" d="M357.37,473.33c-7.36-22.45-14.48-44.07-21.45-65.74-.34-1.06,.17-3.04,1-3.73,10.85-9.04,21.83-17.93,33.16-27.17,18.68,14.94,37.19,29.76,56.21,44.97-23.09,17.31-45.67,34.24-68.93,51.67Z"/><path class="b" d="M152.24,421.99c19.58-14.69,38.44-28.83,57.49-43.12,10.28,8.55,20.44,16.86,30.37,25.45,1.06,.92,1.47,3.62,1,5.12-6.62,21.08-13.46,42.09-20.46,63.8-22.78-17.07-45.21-33.87-68.4-51.24Z"/><path class="b" d="M540.48,0c10.34,19.84,20.15,38.68,30.15,57.89-32.35,22.65-64.43,45.1-96.51,67.55l-.82-.68c22.23-41.28,44.46-82.57,67.18-124.76Z"/><path class="b" d="M37.83,.46c22.68,42.12,44.8,83.22,66.93,124.31l-.57,.72c-6-4.13-12.03-8.22-18-12.4-24.11-16.87-48.15-33.86-72.38-50.57-4.01-2.76-4.94-4.76-2.5-9.41C20.29,36.06,28.7,18.72,37.83,.46Z"/><path class="b" d="M315.46,382.24c0,14.58-11.69,26.32-26.3,26.42-14.71,.1-26.61-11.82-26.62-26.67,0-14.1,11.92-26.08,26.1-26.23,14.71-.15,26.82,11.8,26.82,26.48Z"/></g><g><path class="b" d="M931.44,176.59v68.61h-36.22V73.77h75.32c37.38,0,57.5,20.59,57.5,47.06,0,23-12.52,35.46-24.91,40.56,8.49,3.13,21.3,11.97,21.3,42.66v8.46c0,11.53,.1,24.65,2.46,32.68h-35.13c-3.01-7.46-3.58-20.29-3.58-38.49v-2.5c0-18.75-4.73-27.62-32.36-27.62h-24.38Zm0-29.51h31.08c20.3,0,28.12-7.72,28.12-22.05s-9.11-21.75-27.24-21.75h-31.96v43.8Z"/><path class="b" d="M1082.26,188.47c.03,16.1,8.09,31.83,25.83,31.83,14.84,0,19.07-5.96,22.45-13.74h35.66c-4.57,15.75-18.62,41.63-59.05,41.63s-60.78-31.7-60.78-65.46c0-40.37,20.72-69.2,62.05-69.2,44.2,0,59.23,31.98,59.23,64.1,0,4.36,0,7.18-.47,10.85h-84.93Zm49.71-21.88c-.25-14.98-6.23-27.59-23.6-27.59s-23.94,11.77-25.37,27.59h48.96Z"/><path class="b" d="M1179.64,116.5h19.84v-34.85h35.63v34.85h25.21v26.79h-25.21v63.52c0,9.76,2.98,13.56,13.61,13.56,1.98,0,5.45-.03,8.11-.4v24.51c-7.07,2.4-16.76,2.46-23.95,2.46-25.11,0-33.4-13.43-33.4-35.95v-67.7h-19.84v-26.79Z"/><path class="b" d="M1280.18,63.7h35.63v31.78h-35.63v-31.78Zm0,52.8h35.63V245.2h-35.63V116.5Z"/><path class="b" d="M1347.81,151.41c0-12.79-.03-24.15-.25-34.91h34.95c.47,2.88,.94,15.66,.94,22.59,5.68-14.71,19.4-25.46,41.29-25.58v34c-25.86-.67-41.29,6.29-41.29,41.57v56.11h-35.63v-93.79Z"/><path class="b" d="M1471.89,188.47c.03,16.1,8.09,31.83,25.83,31.83,14.84,0,19.07-5.96,22.45-13.74h35.66c-4.57,15.75-18.62,41.63-59.05,41.63s-60.78-31.7-60.78-65.46c0-40.37,20.72-69.2,62.05-69.2,44.2,0,59.23,31.98,59.23,64.1,0,4.36,0,7.18-.47,10.85h-84.93Zm49.71-21.88c-.25-14.98-6.23-27.59-23.6-27.59s-23.94,11.77-25.37,27.59h48.96Z"/><path class="b" d="M1701.86,63.7V209.83c0,11.72,0,23.59,.25,35.37h-34.26c-.72-3.86-1.4-10.51-1.62-13.44-6.22,10.13-17.29,16.43-36.52,16.43-32.54,0-53.25-26.14-53.25-66.28s22.01-68.39,58.45-68.39c18.52,0,28.46,6.53,31.32,12.3V63.7h35.63Zm-88.8,117.27c0,25.09,9.77,38.67,27.22,38.67,24.5,0,27.33-20.44,27.33-38.93,0-22.01-3.11-38.65-26.4-38.65-18.71,0-28.14,14.61-28.14,38.91Z"/><path class="b" d="M543.01,335.7v72.82c0,23.45,12.06,30.4,25.24,30.4,15.12,0,24.61-8.22,24.61-30.4v-72.82h26.45v71.5c0,41.78-24.46,52.43-51.41,52.43s-51.35-11.11-51.35-51.93v-72.01h26.47Z"/><path class="b" d="M663.7,422.08c2.79,12.27,11.59,17.65,25.73,17.65s20.14-5.57,20.14-14.52c0-9.95-5.89-14.26-26.79-19.13-33.26-7.81-41.48-19.9-41.48-36.4,0-21.3,15.93-35.77,44.86-35.77,32.45,0,45.37,17.44,47.12,35.32h-26.62c-1.28-7.52-5.44-15.69-21.19-15.69-10.73,0-17.2,4.43-17.2,13.11s5.19,11.95,24.93,16.52c35.54,8.37,43.34,21.6,43.34,38.83,0,22.31-16.88,37.62-49.19,37.62s-47.36-15.27-50.29-37.55h26.62Z"/><path class="b" d="M824.16,429.68l-9.53,28.23h-25.98l41.5-122.21h33.19l43.29,122.21h-27.78l-10.04-28.23h-44.64Zm38.96-21.66c-8.68-25.79-14.21-42.27-17.16-53.25h-.18c-3.01,12.05-9.12,31.22-16.07,53.25h33.4Z"/><path class="b" d="M948.75,335.7v122.21h-26.42v-122.21h26.42Z"/><path class="b" d="M1003.8,408.99v48.91h-25.82v-122.21h53.7c26.65,0,40.99,14.68,40.99,33.55,0,16.4-8.93,25.28-17.76,28.91,6.05,2.23,15.19,8.54,15.19,30.41v6.03c0,8.22,.07,17.58,1.75,23.3h-25.04c-2.15-5.32-2.55-14.46-2.55-27.44v-1.79c0-13.36-3.37-19.69-23.07-19.69h-17.38Zm0-21.03h22.15c14.47,0,20.05-5.5,20.05-15.72s-6.49-15.5-19.42-15.5h-22.78v31.23Z"/><path class="b" d="M1138.22,335.7h85.3v21.66h-59.5v29.94h55.73v21.66h-55.73v48.95h-25.8v-122.21Z"/><path class="b" d="M1357.24,396.38c0,34.01-20.42,63.29-60.11,63.29s-58.42-27.87-58.42-62.88,22.17-62.88,60.13-62.88c35.75,0,58.4,25.05,58.4,62.46Zm-91.25-.11c0,23.86,10.47,41.9,32.14,41.9,23.5,0,31.82-19.68,31.82-41.46,0-23.12-9.47-41.29-32.25-41.29s-31.71,17.05-31.71,40.84Z"/><path class="b" d="M1406.17,408.99v48.91h-25.82v-122.21h53.7c26.65,0,40.99,14.68,40.99,33.55,0,16.4-8.93,25.28-17.76,28.91,6.05,2.23,15.19,8.54,15.19,30.41v6.03c0,8.22,.07,17.58,1.75,23.3h-25.04c-2.15-5.32-2.55-14.46-2.55-27.44v-1.79c0-13.36-3.37-19.69-23.07-19.69h-17.38Zm0-21.03h22.15c14.47,0,20.05-5.5,20.05-15.72s-6.49-15.5-19.42-15.5h-22.78v31.23Z"/><path class="b" d="M1602.13,420.23c-4.91,22.8-22.1,39.4-52.7,39.4-38.75,0-57.07-27.42-57.07-62.19s18.9-63.52,58.34-63.52c32.54,0,48.31,19.1,51.3,39.53h-26.42c-2.55-9.42-9.11-18.81-25.72-18.81-21.79,0-30.21,19.6-30.21,41.84,0,20.66,7.3,42.42,30.92,42.42,17.24,0,22.69-11.55,24.99-18.68h26.58Z"/><path class="b" d="M1706.56,405.2h-58.44v31.05h64.47l-3.13,21.66h-86.98v-122.21h86.65v21.66h-61.01v26.18h58.44v21.66Z"/></g></svg>